<svg width="20" height="24" viewBox="0 0 20 24" fill="none" xmlns="http://www.w3.org/2000/svg">
<path d="M9.52185 14.4563C7.23263 14.459 5.26006 12.8448 4.80985 10.6003C4.77462 10.3682 4.84309 10.1324 4.9971 9.95527C5.15112 9.77815 5.37515 9.6776 5.60985 9.68026C6.00359 9.67454 6.34294 9.9562 6.40985 10.3443C6.72039 11.8265 8.02744 12.8881 9.54184 12.8881C11.0563 12.8881 12.3633 11.8265 12.6738 10.3443C12.7407 9.9562 13.0801 9.67454 13.4738 9.68026C13.7085 9.6776 13.9326 9.77815 14.0866 9.95527C14.2406 10.1324 14.3091 10.3682 14.2738 10.6003C13.8208 12.8596 11.8261 14.4782 9.52185 14.4563Z" fill="black"/>
<path d="M16.643 23.9997H2.403C1.74514 24.0005 1.11577 23.7313 0.662072 23.2549C0.208371 22.7785 -0.0298885 22.1368 0.00300535 21.4797L0.651005 7.68773C0.706727 6.40302 1.7651 5.39052 3.051 5.39172H15.995C17.2809 5.39052 18.3393 6.40302 18.395 7.68773L19.043 21.4797C19.0759 22.1368 18.8376 22.7785 18.3839 23.2549C17.9302 23.7313 17.3009 24.0005 16.643 23.9997ZM3.051 6.99973C2.60918 6.99973 2.251 7.3579 2.251 7.79973L1.603 21.5597C1.59204 21.7787 1.67146 21.9927 1.82269 22.1514C1.97393 22.3102 2.18372 22.4 2.403 22.3997H16.643C16.8623 22.4 17.0721 22.3102 17.2233 22.1514C17.3745 21.9927 17.454 21.7787 17.443 21.5597L16.795 7.76773C16.795 7.3259 16.4368 6.96773 15.995 6.96773L3.051 6.99973Z" fill="black"/>
<path d="M14.3226 6.2H12.7226V4.8C12.7226 3.03269 11.2899 1.6 9.52259 1.6C7.75528 1.6 6.3226 3.03269 6.3226 4.8V6.2H4.7226V4.8C4.7226 2.14903 6.87163 0 9.52259 0C12.1736 0 14.3226 2.14903 14.3226 4.8V6.2Z" fill="black"/>
</svg>
