<svg width="23" height="16" viewBox="0 0 23 16" fill="none" xmlns="http://www.w3.org/2000/svg">
<path d="M1.5 6.99995C0.947715 6.99995 0.5 7.44767 0.5 7.99995C0.5 8.55223 0.947715 8.99995 1.5 8.99995V6.99995ZM22.2071 8.70706C22.5976 8.31653 22.5976 7.68337 22.2071 7.29284L15.8431 0.928879C15.4526 0.538355 14.8195 0.538355 14.4289 0.928879C14.0384 1.31941 14.0384 1.95257 14.4289 2.3431L20.0858 7.99995L14.4289 13.6568C14.0384 14.0473 14.0384 14.6804 14.4289 15.071C14.8195 15.4615 15.4526 15.4615 15.8431 15.071L22.2071 8.70706ZM1.5 8.99995H21.5V6.99995H1.5V8.99995Z" fill="white"/>
</svg>
