<svg width="24" height="22" viewBox="0 0 24 22" fill="none" xmlns="http://www.w3.org/2000/svg">
<path d="M6.84609 0C6.5228 0 6.27558 0.246552 6.27558 0.568966C6.27558 0.891379 6.5228 1.13793 6.84609 1.13793H8.17728V2.46552C8.17728 2.78793 8.4245 3.03448 8.74778 3.03448H22.1168C22.364 3.03448 22.5921 3.14813 22.7252 3.35675C22.8583 3.56537 22.9154 3.81222 22.8203 4.0398L20.2151 11.8534C19.9299 12.7069 19.1311 13.2759 18.2373 13.2759H8.17728C7.13135 13.2759 6.27558 14.1293 6.27558 15.1724C6.27558 16.2155 7.13135 17.069 8.17728 17.069H15.3086C15.9932 17.069 16.5447 17.619 16.5447 18.3017C16.5447 18.6241 16.7919 18.8707 17.1152 18.8707C17.4385 18.8707 17.6857 18.6241 17.6857 18.3017C17.6857 16.9931 16.6208 15.931 15.3086 15.931H8.17728C7.7589 15.931 7.4166 15.5897 7.4166 15.1724C7.4166 14.7552 7.7589 14.4138 8.17728 14.4138H18.2373C19.6255 14.4138 20.8616 13.5225 21.299 12.2139L23.9041 4.39985C24.0943 3.81192 23.9995 3.18606 23.6382 2.69296C23.2959 2.18089 22.7254 1.89655 22.1168 1.89655H9.31829V0.568966C9.31829 0.246552 9.07107 0 8.74778 0H6.84609ZM2.66237 5.68966C2.33908 5.68966 2.09186 5.93621 2.09186 6.25862C2.09186 6.58103 2.33908 6.82759 2.66237 6.82759H6.46575C6.78904 6.82759 7.03626 6.58103 7.03626 6.25862C7.03626 5.93621 6.78904 5.68966 6.46575 5.68966H2.66237ZM0.570508 9.46868C0.532474 9.46868 0.494514 9.47328 0.45648 9.48276C0.418446 9.48276 0.380487 9.50158 0.342453 9.52054C0.304419 9.53951 0.285402 9.55862 0.247368 9.57759C0.209334 9.59655 0.190243 9.61559 0.171226 9.65352C0.0571249 9.74835 0 9.9 0 10.0517C0 10.2034 0.0571249 10.3551 0.171226 10.4499C0.190243 10.4879 0.228351 10.5069 0.247368 10.5259C0.285402 10.5448 0.304419 10.5639 0.342453 10.5829C0.380487 10.6019 0.418446 10.6017 0.45648 10.6207H0.570508C0.608541 10.6207 0.646501 10.6208 0.684535 10.6018C0.722569 10.6018 0.760529 10.5826 0.798562 10.5636C0.836596 10.5447 0.87463 10.5259 0.893647 10.507C0.931681 10.488 0.950772 10.469 0.969789 10.431C1.08389 10.3552 1.14102 10.2034 1.14102 10.0517C1.14102 9.9 1.08389 9.74835 0.969789 9.65352L0.893647 9.57759C0.855613 9.55862 0.836596 9.53951 0.798562 9.52054C0.760529 9.50158 0.722569 9.50172 0.684535 9.48276C0.646501 9.47328 0.608541 9.46868 0.570508 9.46868ZM3.61321 9.48276C3.28993 9.48276 3.04271 9.72931 3.04271 10.0517C3.04271 10.3741 3.28993 10.6207 3.61321 10.6207H9.31829C9.64158 10.6207 9.8888 10.3741 9.8888 10.0517C9.8888 9.72931 9.64158 9.48276 9.31829 9.48276H3.61321ZM8.17728 18.2069C7.13135 18.2069 6.27558 19.0603 6.27558 20.1034C6.27558 21.1466 7.13135 22 8.17728 22C9.22321 22 10.079 21.1466 10.079 20.1034C10.079 19.0603 9.22321 18.2069 8.17728 18.2069ZM14.8451 18.5862C14.7001 18.5862 14.5575 18.6432 14.4529 18.757C14.0915 19.1173 13.9013 19.5914 13.9013 20.1034C13.9013 21.1466 14.7571 22 15.803 22C16.8489 22 17.7047 21.1466 17.7047 20.1034C17.7047 19.781 17.4575 19.5345 17.1342 19.5345C16.8109 19.5345 16.5637 19.781 16.5637 20.1034C16.5637 20.5207 16.2214 20.8621 15.803 20.8621C15.3846 20.8621 15.0423 20.5207 15.0423 20.1034C15.0423 19.8948 15.1186 19.705 15.2707 19.5723C15.4609 19.3447 15.4606 18.9846 15.2514 18.757C15.1373 18.6432 14.9901 18.5862 14.8451 18.5862ZM8.17728 19.3448C8.59565 19.3448 8.93795 19.6862 8.93795 20.1034C8.93795 20.5207 8.59565 20.8621 8.17728 20.8621C7.7589 20.8621 7.4166 20.5207 7.4166 20.1034C7.4166 19.6862 7.7589 19.3448 8.17728 19.3448Z" fill="black"/>
</svg>
