<svg width="25" height="24" viewBox="0 0 25 24" fill="none" xmlns="http://www.w3.org/2000/svg">
<path d="M24.4875 4.25537C23.6085 1.88771 21.4988 0.247496 19.0553 0.032123C18.824 0.0112615 18.5903 0 18.3532 0C16.1054 0.00572279 13.9704 1.01864 12.5 2.77688C11.0296 1.01864 8.89456 0.00572279 6.64676 0C6.40969 0 6.17601 0.0112615 5.94421 0.0324922C3.50096 0.247983 1.39148 1.88801 0.512541 4.25537C-0.469461 6.73343 -0.0186104 9.57216 1.67826 11.5952L11.8262 23.6822C11.9957 23.8841 12.2416 24 12.5001 24C12.7586 24 13.0045 23.8841 13.174 23.6822L23.3217 11.5952C25.0186 9.57216 25.4695 6.73343 24.4875 4.25537ZM21.9745 10.3846L12.5 21.6688L3.0258 10.3846C1.77047 8.88422 1.43877 6.78082 2.16811 4.94574C2.80242 3.22608 4.33078 2.03216 6.10371 1.87135C6.28241 1.85455 6.46343 1.84605 6.64676 1.84605C8.7329 1.83412 10.669 2.96615 11.7345 4.82094C11.9072 5.08238 12.1937 5.23874 12.4998 5.23874C12.806 5.23874 13.0924 5.08238 13.2651 4.82094C14.3307 2.96604 16.267 1.83399 18.3532 1.84605C18.5363 1.84605 18.7176 1.85473 18.8954 1.87135C20.6686 2.03191 22.1973 3.22587 22.8317 4.94574C23.5611 6.78079 23.2297 8.88418 21.9745 10.3846Z" fill="black"/>
</svg>
