<svg width="14" height="18" viewBox="0 0 14 18" fill="none" xmlns="http://www.w3.org/2000/svg">
<path fill-rule="evenodd" clip-rule="evenodd" d="M6.57027 0.0111613C5.73097 0.0903189 4.95353 0.403899 4.32363 0.917321C4.17086 1.04185 3.8376 1.38264 3.69619 1.55898C3.4262 1.89558 3.13361 2.4283 2.98213 2.85902C2.84247 3.25611 2.7419 3.73493 2.70696 4.1692C2.69598 4.30559 2.68802 4.89835 2.68802 5.57944V6.75442H2.30171C1.99295 6.75442 1.88089 6.76148 1.74332 6.78957C1.30102 6.87994 0.940112 7.08548 0.612726 7.43345C0.271464 7.79617 0.0776703 8.21351 0.0150599 8.7205C0.00146495 8.83058 -0.00254493 9.93973 0.00150013 12.4781L0.00723356 16.0795L0.0455561 16.241C0.116714 16.5409 0.242726 16.8268 0.415573 17.0805C0.743592 17.5619 1.32244 17.9117 1.90539 17.9806C2.1237 18.0065 11.8701 18.0065 12.0884 17.9806C12.5687 17.9238 13.0189 17.6966 13.3627 17.3374C13.6867 16.9988 13.8975 16.5699 13.9703 16.101C14.0103 15.8432 14.0097 8.87821 13.9696 8.63563C13.8508 7.9161 13.421 7.30573 12.8095 6.988C12.4482 6.80032 12.2283 6.75442 11.6904 6.75442H11.3057V5.5903C11.3057 4.95004 11.2976 4.32073 11.2875 4.19183C11.1826 2.84222 10.5942 1.67138 9.63496 0.90354C9.06357 0.446179 8.4117 0.163339 7.65915 0.0462567C7.39138 0.00460158 6.83119 -0.0134606 6.57027 0.0111613ZM7.2984 1.13216C7.72666 1.17616 8.08463 1.27726 8.43504 1.45314C9.29249 1.88353 9.88512 2.66303 10.1255 3.67668C10.2174 4.06411 10.221 4.12579 10.2284 5.48198L10.2353 6.75442H6.9968H3.75829L3.76543 5.48198C3.77322 4.09312 3.77563 4.0552 3.88326 3.62055C4.09612 2.76102 4.55115 2.08396 5.22057 1.63071C5.79232 1.24362 6.5692 1.05721 7.2984 1.13216ZM12.2002 7.92815C12.3489 7.98625 12.5523 8.13053 12.6499 8.24714C12.7365 8.35057 12.8162 8.49606 12.8762 8.66032L12.915 8.76644L12.9199 12.3127C12.9254 16.2605 12.9332 15.9895 12.8053 16.2587C12.7164 16.4459 12.5056 16.6649 12.3258 16.7567C12.07 16.8875 12.4787 16.8782 6.99688 16.8782C1.51363 16.8782 1.92723 16.8877 1.67023 16.7559C1.48125 16.6589 1.27527 16.4437 1.18607 16.2499C1.06326 15.9832 1.07061 16.2294 1.07061 12.377C1.07061 8.56948 1.06537 8.76662 1.17265 8.52919C1.31229 8.22007 1.59114 7.98067 1.90454 7.90085C1.97392 7.88317 3.09653 7.87891 7.04085 7.88135L12.0884 7.88446L12.2002 7.92815ZM6.8453 10.1345C6.47553 10.1946 6.16849 10.4409 6.01253 10.8026C5.81369 11.2636 5.9582 11.8445 6.34494 12.1388L6.45168 12.22L6.45182 13.1208C6.45194 14.021 6.46156 14.202 6.51499 14.3099C6.56012 14.4011 6.66505 14.509 6.75835 14.5602C6.83445 14.6019 6.86911 14.609 6.99688 14.609C7.12508 14.609 7.15921 14.602 7.23647 14.5596C7.34678 14.4992 7.45848 14.3702 7.50055 14.2548C7.52898 14.1768 7.53262 14.0754 7.53859 13.1947L7.54518 12.2209L7.63319 12.1565C7.75009 12.0711 7.88101 11.9066 7.95618 11.7506C8.20653 11.2313 8.03456 10.603 7.55556 10.2871C7.37295 10.1667 7.06037 10.0995 6.8453 10.1345Z" fill="black"/>
</svg>
