<svg width="187" height="28" viewBox="0 0 187 28" fill="none" xmlns="http://www.w3.org/2000/svg">
<path d="M4.28828 23.68V3.28L0.848281 1.88L1.08828 0.999999C6.28828 0.786665 9.70162 0.679998 11.3283 0.679998C17.9683 0.679998 21.2883 2.93333 21.2883 7.44C21.2883 10.1333 20.0749 12.1333 17.6483 13.44C20.8749 14.56 22.4883 16.7867 22.4883 20.12C22.4883 21.32 22.2483 22.3733 21.7683 23.28C21.3149 24.16 20.7283 24.8533 20.0083 25.36C19.2883 25.8667 18.3949 26.28 17.3283 26.6C15.5683 27.08 13.7549 27.32 11.8883 27.32C10.0216 27.32 6.42161 27.2133 1.08828 27L0.848281 26.12L3.04828 25.2C3.52828 25.0133 3.84828 24.8133 4.00828 24.6C4.19495 24.3867 4.28828 24.08 4.28828 23.68ZM12.6483 14.8H8.76828C8.04828 14.8 7.68828 15.1333 7.68828 15.8V24.88C8.38161 24.9867 9.75495 25.04 11.8083 25.04C13.8616 25.04 15.6616 24.8 17.2083 24.32C18.2483 23.52 18.7683 22.2133 18.7683 20.4C18.7683 16.6667 16.7283 14.8 12.6483 14.8ZM12.0483 2.88H8.76828C8.04828 2.88 7.68828 3.21333 7.68828 3.88V12.6C8.38161 12.7067 9.63495 12.76 11.4483 12.76C13.2616 12.76 14.8216 12.4933 16.1283 11.96C17.0883 11.24 17.5683 10.0667 17.5683 8.44C17.5683 6.78667 17.1416 5.45333 16.2883 4.44C15.4616 3.4 14.0483 2.88 12.0483 2.88ZM32.1414 4.28V12.92C34.6747 12.92 37.2481 12.8 39.8614 12.56L41.1414 12.44L41.5814 12.92L41.1414 15.16C37.9681 14.9733 34.9681 14.88 32.1414 14.88V24.92L40.8214 24.76L42.7414 21.24L43.9414 21.52V27H25.5414L25.3014 26.12L27.5014 25.2C27.9814 25.0133 28.3014 24.8133 28.4614 24.6C28.6481 24.3867 28.7414 24.08 28.7414 23.68V3.28L25.3014 1.88L25.5414 0.999999H43.7414V6.48L42.5414 6.76L40.6214 3.24L33.2214 3.08C32.5014 3.08 32.1414 3.48 32.1414 4.28ZM53.9383 4.32V24.92L62.8183 24.76L64.7383 21.24L65.9383 21.52V27H47.3383L47.0983 26.12L49.2983 25.2C49.7783 25.0133 50.0983 24.8133 50.2583 24.6C50.4449 24.3867 50.5383 24.08 50.5383 23.68V3.28L47.0983 1.88L47.3383 0.999999H57.1383L57.3783 1.88L55.1783 2.8C54.6983 2.98667 54.3649 3.18666 54.1783 3.4C54.0183 3.61333 53.9383 3.92 53.9383 4.32ZM71.3195 23.68V3.28L67.8795 1.88L68.1195 0.999999C74.1462 0.786665 77.9329 0.679998 79.4795 0.679998C88.3862 0.679998 92.8395 5.24 92.8395 14.36C92.8395 19.1067 91.5729 22.4533 89.0395 24.4C86.5329 26.3467 82.5595 27.32 77.1195 27.32C76.4529 27.32 73.4529 27.2133 68.1195 27L67.8795 26.12L70.0795 25.2C70.5595 25.0133 70.8795 24.8133 71.0395 24.6C71.2262 24.3867 71.3195 24.08 71.3195 23.68ZM80.0795 2.88H75.7995C75.0795 2.88 74.7195 3.21333 74.7195 3.88V24.88C75.7595 24.9867 77.0929 25.04 78.7195 25.04C82.2395 25.04 84.8795 24.4667 86.6395 23.32C88.2929 21.2933 89.1195 18.44 89.1195 14.76C89.1195 11.0533 88.3462 8.14667 86.7995 6.04C85.2529 3.93333 83.0129 2.88 80.0795 2.88ZM112.7 24.2C112.7 24.04 112.66 23.8667 112.58 23.68L110.78 18.6H101.5L99.3795 24.72L102.82 26.12L102.58 27H93.7395L93.4995 26.12L95.6995 25.2C96.1529 25.0133 96.4329 24.84 96.5395 24.68C96.6729 24.52 96.8329 24.1867 97.0195 23.68L105.02 1.4L107.46 0.679998L108.26 0.999999L116.86 24.84L119.98 26.12L119.74 27H109.94L109.7 26.12L111.9 25.2C112.433 24.9867 112.7 24.6533 112.7 24.2ZM106.1 5.32L102.18 16.56H110.06L106.1 5.32ZM149.209 4.32L150.129 24.72L153.569 26.12L153.329 27H143.849L143.609 26.12L145.409 25.24C146.263 24.84 146.676 24.32 146.649 23.68L145.769 4.08L138.089 26.2L135.609 27L134.849 26.6L127.369 4.12L126.249 24.72L129.289 26.12L129.049 27H120.649L120.409 26.12L122.609 25.2C123.276 24.9067 123.663 24.6133 123.769 24.32C123.796 24.1867 123.823 23.9733 123.849 23.68L124.849 3.28L121.409 1.88L121.649 0.999999H129.729L130.249 1.4L137.009 22.28L144.089 0.999999H152.409L152.649 1.88L150.449 2.8C149.596 3.14667 149.183 3.65333 149.209 4.32ZM173.207 24.2C173.207 24.04 173.167 23.8667 173.087 23.68L171.287 18.6H162.007L159.887 24.72L163.327 26.12L163.087 27H154.247L154.007 26.12L156.207 25.2C156.661 25.0133 156.941 24.84 157.047 24.68C157.181 24.52 157.341 24.1867 157.527 23.68L165.527 1.4L167.967 0.679998L168.767 0.999999L177.367 24.84L180.487 26.12L180.247 27H170.447L170.207 26.12L172.407 25.2C172.941 24.9867 173.207 24.6533 173.207 24.2ZM166.607 5.32L162.687 16.56H170.567L166.607 5.32ZM184.197 27.32C183.584 27.32 183.064 27.12 182.637 26.72C182.237 26.2933 182.037 25.7733 182.037 25.16C182.037 24.52 182.237 23.9867 182.637 23.56C183.064 23.1333 183.584 22.92 184.197 22.92C184.837 22.92 185.37 23.1333 185.797 23.56C186.224 23.9867 186.437 24.52 186.437 25.16C186.437 25.7733 186.224 26.2933 185.797 26.72C185.37 27.12 184.837 27.32 184.197 27.32Z" fill="black"/>
</svg>
