<svg width="17" height="17" viewBox="0 0 17 17" fill="none" xmlns="http://www.w3.org/2000/svg">
<path d="M16.6187 12.699L13.9934 10.2136C13.4706 9.7207 12.6045 9.73579 12.0634 10.248L10.7408 11.4999C10.6573 11.4562 10.5708 11.4107 10.4798 11.3624C9.64466 10.9243 8.50143 10.3239 7.29838 9.1843C6.09197 8.04241 5.45683 6.9585 4.9928 6.16737C4.94354 6.08349 4.89672 6.00279 4.85048 5.92606L5.73819 5.08688L6.17454 4.67328C6.71661 4.16016 6.73163 3.3406 6.2097 2.8463L3.58432 0.360604C3.06272 -0.133137 2.19632 -0.118124 1.65425 0.394997L0.914307 1.09939L0.934698 1.11845C0.686652 1.41806 0.479137 1.76374 0.325073 2.13643C0.182757 2.49117 0.0941456 2.82978 0.0536158 3.16887C-0.292943 5.88936 1.02029 8.37554 4.58439 11.7496C9.51099 16.4127 13.4814 16.0605 13.6526 16.0432C14.0259 16.0011 14.3832 15.9167 14.7466 15.7831C15.137 15.6387 15.5019 15.4428 15.8181 15.2085L15.8343 15.2219L16.5839 14.5271C17.1248 14.0141 17.1404 13.1945 16.6187 12.699ZM16.0007 13.9746L15.6703 14.2868L15.5388 14.4065C15.3316 14.5961 14.9729 14.8624 14.4492 15.0563C14.1519 15.1646 13.8588 15.2342 13.5606 15.2678C13.5231 15.2712 9.78874 15.5728 5.16691 11.1982C1.23712 7.47845 0.607355 5.33502 0.871344 3.25902C0.904406 2.98388 0.977326 2.70698 1.09388 2.41762C1.30047 1.91903 1.58158 1.57986 1.78037 1.38343L2.23711 0.946801C2.45721 0.737898 2.80049 0.721933 3.00172 0.912407L5.62701 3.39747C5.82789 3.58818 5.81203 3.91313 5.5916 4.12267L3.81861 5.79929L3.98224 6.05998C4.0732 6.20526 4.16936 6.36809 4.27207 6.54498C4.75977 7.37757 5.42704 8.51724 6.71569 9.73595C8.00098 10.9532 9.20319 11.5843 10.0801 12.0448C10.2696 12.144 10.4426 12.2352 10.5978 12.3228L10.8738 12.4776L12.6456 10.7999C12.8666 10.5916 13.2111 10.5762 13.4123 10.7661L16.0364 13.2506C16.2371 13.441 16.2211 13.7659 16.0007 13.9746Z" fill="#010002"/>
</svg>
