<svg width="19" height="17" viewBox="0 0 19 17" fill="none" xmlns="http://www.w3.org/2000/svg">
<path fill-rule="evenodd" clip-rule="evenodd" d="M18.6366 1.25L15.8271 15.5945C15.8271 15.5945 15.7064 16.25 14.8934 16.25C14.4614 16.25 14.2386 16.0445 14.2386 16.0445L10.4246 12.8797L10.4256 12.8788L8.15405 10.9939L15.528 4.17194C15.693 4.04669 15.7238 3.81189 15.5985 3.64691C15.4718 3.48194 15.2378 3.45191 15.0728 3.57715L5.18109 9.49677L5.1756 9.49402L1.35434 8.47772C1.35434 8.47772 0.674103 8.28125 0.674103 7.71875C0.674103 7.25 1.37384 7.02649 1.37384 7.02649L17.3609 0.675478C17.3609 0.675478 17.8491 0.49927 18.2054 0.500002C18.4244 0.500002 18.6741 0.593752 18.6741 0.875002C18.6741 0.908389 18.6729 0.941775 18.6709 0.974123C18.6689 1.00781 18.6661 1.04035 18.6628 1.07056C18.6518 1.17407 18.6366 1.25 18.6366 1.25Z" fill="white"/>
</svg>
