<svg width="17" height="20" viewBox="0 0 17 20" fill="none" xmlns="http://www.w3.org/2000/svg">
<path fill-rule="evenodd" clip-rule="evenodd" d="M11.5386 6.35831C12.852 7.29664 14.4611 7.84831 16.1986 7.84831V5.21748C15.2286 5.01081 14.3703 4.50414 13.7245 3.79998C12.6195 3.11081 11.8236 1.97414 11.5903 0.643311H9.15448V13.9916C9.14865 15.5475 7.88532 16.8075 6.32698 16.8075C5.40865 16.8075 4.59282 16.37 4.07615 15.6925C3.15365 15.2275 2.52115 14.2716 2.52115 13.1683C2.52115 11.6075 3.78698 10.3425 5.34865 10.3425C5.64782 10.3425 5.93615 10.3891 6.20698 10.475V7.81664C2.85365 7.88581 0.156982 10.6241 0.156982 13.9925C0.156982 15.6741 0.828649 17.1983 1.91865 18.3116C2.90198 18.9716 4.08615 19.3566 5.35948 19.3566C8.77281 19.3566 11.5403 16.5908 11.5403 13.1791L11.5386 6.35831Z" fill="white"/>
</svg>
