<svg width="30" height="30" viewBox="0 0 30 30" fill="none" xmlns="http://www.w3.org/2000/svg">
<g clip-path="url(#clip0_118_538)">
<path d="M21.9588 17.7527C21.1618 17.0842 20.7938 16.882 19.6933 16.2242C19.2349 15.9506 18.5361 15.7142 18.1695 15.7142C17.9192 15.7142 17.6193 15.9049 17.4356 16.0877C16.965 16.5563 16.8108 17.1427 15.9858 17.1427C15.1787 17.1427 13.7691 16.3249 12.7575 15.2677C11.6958 14.2606 10.8744 12.857 10.8744 12.0534C10.8744 11.232 11.4526 11.0677 11.9232 10.5984C12.1069 10.4163 12.3092 10.1177 12.3092 9.86845C12.3092 9.50345 12.0717 8.81845 11.797 8.36202C11.1362 7.26559 10.9339 6.89916 10.2617 6.10631C10.0343 5.83773 9.77534 5.71488 9.50417 5.71416C9.04576 5.71345 8.44387 5.93988 8.03639 6.24202C7.42374 6.69702 6.78311 7.31631 6.61165 8.08773C6.58869 8.19273 6.57506 8.29845 6.57076 8.40416C6.53776 9.20773 6.85484 10.0234 7.19704 10.7142C8.00267 12.342 9.06871 13.9177 10.2287 15.3249C10.5996 15.7749 11.0035 16.1934 11.4218 16.5977C11.8278 17.0134 12.2482 17.4156 12.7001 17.7856C14.1134 18.9406 15.696 20.002 17.3309 20.8042C18.0182 21.1413 18.8274 21.4513 19.6266 21.4284C19.7406 21.4249 19.8547 21.412 19.9688 21.387C20.7435 21.217 21.3655 20.5784 21.8225 19.9684C22.126 19.5627 22.3534 18.9642 22.3526 18.507C22.3519 18.237 22.2285 17.9792 21.9588 17.7527ZM22.3526 14.2856C21.9566 14.2856 21.6353 13.9656 21.6353 13.5713V12.857C21.6353 9.31273 18.7384 6.42845 15.1787 6.42845C14.7827 6.42845 14.4613 6.10845 14.4613 5.71416C14.4613 5.31988 14.7827 4.99988 15.1787 4.99988C19.5297 4.99988 23.07 8.52488 23.07 12.857V13.5713C23.07 13.9656 22.7486 14.2856 22.3526 14.2856ZM17.9464 12.857C17.6279 12.857 17.3366 12.6442 17.2527 12.3227C17.0561 11.572 16.4679 10.9856 15.7168 10.7927C15.333 10.6934 15.1027 10.3042 15.2017 9.92202C15.3007 9.54059 15.691 9.31131 16.0762 9.40916C17.3302 9.73274 18.313 10.7106 18.6409 11.962C18.7406 12.3442 18.511 12.7334 18.1279 12.8334C18.067 12.8492 18.006 12.857 17.9464 12.857Z" fill="white"/>
<path d="M20.1965 13.5714C19.8005 13.5714 19.4791 13.2514 19.4791 12.8571C19.4791 10.58 17.6899 8.70143 15.4058 8.58143C15.0098 8.56072 14.7063 8.22429 14.7271 7.83072C14.7479 7.43643 15.0915 7.13357 15.4811 7.155C18.5279 7.315 20.9139 9.82 20.9139 12.8571C20.9139 13.2514 20.5925 13.5714 20.1965 13.5714Z" fill="white"/>
<path d="M15.1759 0C11.9476 0 6.91724 0.295714 3.85255 3.08286C1.68603 5.23071 0.828026 8.24357 0.828026 12.1429C0.828026 12.4657 0.826591 12.8257 0.829461 13.2143C0.826591 13.6021 0.828026 13.9621 0.828026 14.285C0.828026 18.1843 1.68603 21.1971 3.85255 23.345C5.01903 24.4057 6.4739 25.1036 8.00194 25.5636V28.8393C8.00194 29.9793 8.75448 30 8.89222 30H8.89868C9.25307 29.9986 9.5594 29.8257 9.86644 29.5543C9.98194 29.4521 11.3156 27.9721 12.7661 26.3536C13.6299 26.4086 14.4506 26.4286 15.1751 26.4286C18.4034 26.4286 23.433 26.1321 26.4984 23.345C28.6642 21.1979 29.523 18.1843 29.523 14.285C29.523 13.9621 29.5244 13.6021 29.5215 13.2136C29.5244 12.825 29.523 12.4657 29.523 12.1421C29.523 8.24286 28.665 5.23 26.4984 3.08214C23.4337 0.295714 18.4041 0 15.1759 0ZM27.3715 14.0364V14.285C27.3715 17.7893 26.6218 20.1771 25.0142 21.7936C22.2292 24.2857 16.9241 24.2857 15.1751 24.2857C14.6428 24.2857 13.7791 24.285 12.7597 24.2143C12.4763 24.5314 9.43672 27.9164 9.43672 27.9164V23.7286C7.92733 23.3679 6.43587 22.7764 5.33755 21.7943C3.72987 20.1771 2.9802 17.7893 2.9802 14.285V14.0364C2.9802 13.7857 2.97948 13.515 2.98163 13.1986C2.97948 12.9129 2.97948 12.6429 2.9802 12.3914V12.1429C2.9802 8.63857 3.72987 6.25071 5.33755 4.63429C8.12174 2.14214 13.4276 2.14214 15.1759 2.14214C16.9241 2.14214 22.2292 2.14214 25.0134 4.63429C26.6218 6.25071 27.3708 8.63857 27.3708 12.1429V12.3914C27.3708 12.6421 27.3715 12.9129 27.3694 13.2293C27.3715 13.5157 27.3715 13.7857 27.3715 14.0364Z" fill="white"/>
</g>
<defs>
<clipPath id="clip0_118_538">
<rect width="30" height="30" fill="white"/>
</clipPath>
</defs>
</svg>
