<svg width="30" height="30" viewBox="0 0 30 30" fill="none" xmlns="http://www.w3.org/2000/svg">
<g clip-path="url(#clip0_118_530)">
<path fill-rule="evenodd" clip-rule="evenodd" d="M0.657378 29.5169C0.728391 29.5884 0.824072 29.6271 0.922743 29.6271C0.954886 29.6271 0.986281 29.6234 1.01768 29.6145L8.39931 27.6873C10.4923 28.7957 12.8507 29.3815 15.2345 29.3822C23.2627 29.3822 29.7974 22.8774 29.8004 14.8824C29.8019 11.0089 28.2882 7.36604 25.5381 4.62462C22.7881 1.88395 19.129 0.373681 15.2345 0.372192C7.20554 0.372192 0.671581 6.87626 0.668591 14.872C0.667096 17.3655 1.31219 19.8219 2.53512 21.9849L0.562445 29.1574C0.527312 29.2847 0.56394 29.4224 0.657378 29.5169ZM15.2399 3.13071C18.3914 3.13145 21.3522 4.35441 23.5798 6.57404C25.8074 8.79367 27.0326 11.7442 27.0318 14.8816C27.0296 21.3567 21.738 26.6244 15.2361 26.6244H15.2317C13.1147 26.6237 11.0382 26.058 9.22769 24.9876L8.79638 24.733L4.33152 25.8987L5.52379 21.5658L5.24273 21.1215C4.06167 19.2509 3.43825 17.0909 3.439 14.872C3.44199 8.39768 8.73359 3.13071 15.2399 3.13071Z" fill="white"/>
<path fill-rule="evenodd" clip-rule="evenodd" d="M11.6886 8.96564C11.4233 8.37761 11.1437 8.3657 10.8903 8.35528C10.6833 8.34635 10.447 8.34709 10.2108 8.34709C9.97461 8.34709 9.59039 8.43567 9.26523 8.78923C8.94006 9.14279 8.02362 9.99656 8.02362 11.7339C8.02362 13.4711 9.29438 15.1504 9.47154 15.3856C9.6487 15.6208 11.9249 19.3001 15.5293 20.7158C18.5246 21.8919 19.1346 21.6582 19.7849 21.5994C20.4352 21.5406 21.8831 20.7456 22.1784 19.9209C22.4737 19.0961 22.4737 18.3898 22.3855 18.2424C22.2965 18.095 22.0603 18.0072 21.706 17.83C21.3517 17.6529 19.6077 16.7991 19.2826 16.6815C18.9574 16.5639 18.7212 16.5051 18.4842 16.8587C18.248 17.2115 17.5685 18.0072 17.3615 18.2424C17.1544 18.4783 16.9474 18.5081 16.593 18.331C16.2387 18.1538 15.0965 17.7816 13.7413 16.5788C12.6873 15.6431 11.9757 14.4872 11.7686 14.1336C11.5616 13.7808 11.7462 13.5895 11.9241 13.4131C12.0833 13.2545 12.2784 13.0007 12.4563 12.7945C12.6335 12.5884 12.6925 12.441 12.8107 12.2058C12.9288 11.9698 12.8697 11.7636 12.7808 11.5872C12.6933 11.4101 12.0041 9.66383 11.6886 8.96564Z" fill="white"/>
</g>
<defs>
<clipPath id="clip0_118_530">
<rect width="30" height="30" fill="white"/>
</clipPath>
</defs>
</svg>
